<?xml version="1.0" encoding="UTF-8" standalone="no"?>
<svg
   viewBox="0 0 300.45002 61.212142"
   version="1.1"
   id="svg2"
   width="300.45001"
   height="61.212231"
   sodipodi:docname="flags.svg"
   inkscape:version="1.3 (0e150ed, 2023-07-21)"
   xmlns:inkscape="http://www.inkscape.org/namespaces/inkscape"
   xmlns:sodipodi="http://sodipodi.sourceforge.net/DTD/sodipodi-0.dtd"
   xmlns="http://www.w3.org/2000/svg"
   xmlns:svg="http://www.w3.org/2000/svg">
  <sodipodi:namedview
     id="namedview1"
     pagecolor="#ffffff"
     bordercolor="#000000"
     borderopacity="0.25"
     inkscape:showpageshadow="2"
     inkscape:pageopacity="0.0"
     inkscape:pagecheckerboard="0"
     inkscape:deskcolor="#d1d1d1"
     showguides="true"
     inkscape:zoom="2.2392792"
     inkscape:cx="160.76602"
     inkscape:cy="34.386065"
     inkscape:window-width="1440"
     inkscape:window-height="793"
     inkscape:window-x="0"
     inkscape:window-y="25"
     inkscape:window-maximized="1"
     inkscape:current-layer="svg2" />
  <defs
     id="defs2">
    <clipPath
       clipPathUnits="userSpaceOnUse"
       id="clipPath3781">
      <path
         d="M -190.89,-31.814823 H 131.633 V 30.011196 H -190.89 Z"
         id="path3783"
         style="stroke-width:0.999998" />
    </clipPath>
    <clipPath
       clipPathUnits="userSpaceOnUse"
       id="clipPath3777">
      <path
         d="m -191.2707,-42.347923 h 322.523 v 61.826019 h -322.523 z"
         id="path3779"
         style="stroke-width:0.999998" />
    </clipPath>
  </defs>
  <g
     id="g3"
     transform="matrix(10.204099,0,0,10.204099,0.03856557,0.06099224)">
    <rect
       width="10"
       height="6"
       fill="#cc0000"
       id="rect1"
       x="0"
       y="0" />
    <rect
       width="10"
       height="3"
       id="rect2"
       x="0"
       y="0" />
    <circle
       cx="5"
       cy="3"
       r="1.5"
       fill="#ffff00"
       id="circle2" />
  </g>
  <g
     id="layer1"
     transform="matrix(0.89228014,0,0,1.0723325,102.1384,-257.19714)">
    <g
       id="g7816">
      <path
         d="M -101.15872,56.911551 V -105.08845 h 324 V 56.911551"
         style="fill:#006747;fill-opacity:1;fill-rule:nonzero;stroke:none"
         id="path224"
         transform="matrix(0.35277777,0,0,-0.35277777,35.686549,259.92712)"
         clip-path="none" />
      <path
         d="m 1.3423456e-6,253.34374 v 30.1625 H 114.3 v -30.1625"
         style="fill:#000000;fill-opacity:1;fill-rule:nonzero;stroke:none;stroke-width:0.256287"
         id="path5655"
         clip-path="none" />
      <path
         d="m 1.3423456e-6,254.93124 v 26.9875 H 114.3 v -26.9875"
         style="fill:#012169;fill-opacity:1;fill-rule:nonzero;stroke:none;stroke-width:0.242423"
         id="path5657"
         clip-path="none" />
      <g
         id="g6944"
         transform="matrix(3.5156835,0,0,3.5156835,-167.21163,-666.27799)">
        <g
           id="g458"
           transform="matrix(0.35277777,0,0,-0.35277777,64.11909,266.04537)"
           clip-path="url(#clipPath3781)">
          <path
             d="M 0,0 -0.856,2.699 -1.709,0 -4.54,0.022 l 2.303,-1.645 -0.896,-2.686 2.277,1.681 2.277,-1.681 -0.894,2.686 2.302,1.645 z"
             style="fill:#ffffff;fill-opacity:1;fill-rule:nonzero;stroke:none"
             id="path460" />
        </g>
        <g
           id="g462"
           transform="matrix(0.35277777,0,0,-0.35277777,64.253392,262.32952)"
           clip-path="url(#clipPath3777)">
          <path
             d="M 0,0 0.007,-0.023 -1.236,-4.22 -2.472,0 C -15.785,-2.848 -9.77,-14.411 -8.175,-17.439 l -3.235,-2.614 5.727,1.999 v 7.549 c 0,2.454 1.988,4.443 4.443,4.443 2.454,0 4.443,-1.989 4.443,-4.443 l 0.008,-7.549 5.727,-1.999 -3.233,2.614 C 7.298,-14.411 13.314,-2.848 0,0"
             style="fill:#ffffff;fill-opacity:1;fill-rule:nonzero;stroke:none"
             id="path464" />
        </g>
      </g>
    </g>
  </g>
  <g
     id="g2"
     transform="matrix(10.204099,0,0,10.257008,-0.11902225,-0.14619381)">
    <path
       fill="#6d2380"
       d="m 20.013156,0.03233132 h 9.380973 V 5.9892492 h -9.380973 z"
       id="path1"
       style="stroke-width:0.00781749" />
    <path
       fill="#2c58a4"
       d="m 20.013156,0.03233132 h 9.380973 V 4.9964289 h -9.380973 z"
       id="path2"
       style="stroke-width:0.00781749" />
    <path
       fill="#78b82a"
       d="m 20.013156,0.03233132 h 9.380973 V 4.0036099 h -9.380973 z"
       id="path3"
       style="stroke-width:0.00781749" />
    <path
       fill="#efe524"
       d="m 20.013156,0.03233132 h 9.380973 V 3.0107908 h -9.380973 z"
       id="path4"
       style="stroke-width:0.00781749" />
    <path
       fill="#f28917"
       d="m 20.013156,0.03233132 h 9.380973 V 2.0179706 h -9.380973 z"
       id="path5"
       style="stroke-width:0.00781749" />
    <path
       fill="#e22016"
       d="m 20.013156,0.03233132 h 9.380973 V 1.0251516 h -9.380973 z"
       id="path6"
       style="stroke-width:0.00781749" />
    <path
       d="M 22.475661,0.03233132 H 20.013156 V 5.9892492 h 2.462505 l 2.75957,-2.9784584 z"
       id="path7"
       style="stroke-width:0.00781749" />
    <path
       fill="#945516"
       d="M 21.897168,0.03233132 H 20.013156 V 5.9892492 h 1.884012 l 2.75957,-2.9784584 z"
       id="path8"
       style="stroke-width:0.00781749" />
    <path
       fill="#7bcce5"
       d="M 21.326492,0.03233132 H 20.013156 V 5.9892492 h 1.313336 l 2.75957,-2.9784584 z"
       id="path9"
       style="stroke-width:0.00781749" />
    <path
       fill="#f4aec8"
       d="m 20.755816,0.03233132 h -0.74266 V 5.9892492 h 0.74266 l 2.75957,-2.9784584 z"
       id="path10"
       style="stroke-width:0.00781749" />
    <path
       fill="#ffffff"
       d="M 20.013156,0.03233132 V 5.9892492 H 20.18514 L 22.936893,3.0107908 20.18514,0.03233132 Z"
       id="path11"
       style="stroke-width:0.00781749" />
    <path
       fill="#fdd817"
       d="M 20.013156,5.5514717 22.366217,3.0107908 20.013156,0.46229286 Z"
       id="path12"
       style="stroke-width:0.00781749" />
    <circle
       cx="20.880896"
       cy="3.010788"
       fill="none"
       stroke="#66338b"
       stroke-width="0.148532"
       id="circle12"
       r="0.62539822" />
  </g>
</svg>
